<svg width="479" height="169" viewBox="0 0 479 169" fill="none" xmlns="http://www.w3.org/2000/svg">
<path d="M153.704 9.13775C111.739 4.46365 64.5527 -0.0834421 28.4666 22.3556C14.1185 31.2804 3.32665 43.9733 0.685202 58.8254C-2.15153 74.7783 4.05639 91.18 14.9305 104.347C26.4213 118.251 43.3081 128.556 61.2432 136.253C80.6686 144.593 101.728 150.47 122.891 154.983C167.919 164.594 214.755 167.236 261.13 166.448C307.422 165.661 354.176 161.723 398.413 149.936C418.722 144.526 440.224 137.963 456.597 126.337C471.058 116.066 481.017 100.638 477.307 84.6176C473.823 69.5962 460.05 57.4621 445.168 49.1131C427.829 39.3839 407.437 33.4989 387.169 29.5192C365.976 25.3531 344.299 23.2193 322.715 20.9839C298.716 18.4944 274.902 15.2767 251.098 11.7458C203.686 4.7092 155.564 -2.5475 107.196 0.873398C85.7768 2.38909 63.7304 5.69991 44.0275 13.0413C27.1819 19.3158 11.9499 29.443 6.42033 44.4983C0.674926 60.1633 4.47779 77.7758 12.4946 92.4163C20.3984 106.853 32.9067 119.479 47.779 129.436C81.7889 152.231 126.519 160.589 169.09 164.789C193.799 167.227 218.692 168.176 243.575 168.514C268.263 168.853 293.033 168.972 317.72 168.32C341.524 167.693 365.379 165.805 388.34 160.385C409.606 155.373 430.347 147.693 448.59 137.354C456.576 132.823 464.089 127.455 469.259 120.622C473.483 115.05 476.073 108.708 477.132 102.205C479.28 88.9869 475.231 75.1086 466.237 64.0415C455.209 50.451 437.202 43.6007 418.907 38.6557C396.09 32.4913 372.636 27.9273 349.079 24.1338C325.326 20.3065 301.389 17.292 277.451 14.3622C253.288 11.3986 229.155 8.14704 204.909 5.64064C159.511 0.94961 111.77 -0.252773 68.5303 14.0151C50.369 20.0101 32.7937 28.6724 20.5217 41.4838C14.9819 47.2672 10.6651 53.8888 8.56843 61.0778C6.0606 69.6808 7.17062 78.5718 10.1512 86.9886C20.604 116.456 48.2621 141.283 81.1105 155.085C96.6817 161.63 113.64 165.796 131.051 167.134C131.545 167.168 131.545 166.533 131.051 166.499C94.7597 163.705 60.6162 148.421 37.0282 125.651C24.6535 113.704 14.5811 99.3004 9.95596 83.991C7.35562 75.371 7.0884 66.4293 10.439 57.9279C13.3991 50.4171 18.7642 43.6685 25.2496 37.9021C39.0119 25.6664 57.5842 17.6138 76.5368 12.2284C96.99 6.41966 118.625 3.76931 140.199 3.17658C163.859 2.52457 187.519 4.34511 210.942 6.91925C234.582 9.51033 258.139 12.6264 281.727 15.5223C327.577 21.1617 373.694 27.2414 417.91 39.0621C436.719 44.0919 455.23 51.0691 466.258 65.2269C475.19 76.7089 478.92 91.1038 475.899 104.55C474.439 111.036 471.376 117.277 466.679 122.637C460.369 129.851 451.488 135.245 442.413 139.902C423.625 149.555 402.997 156.77 381.526 161.224C358.73 165.957 335.172 167.363 311.739 167.803C287.945 168.252 264.079 168.193 240.286 167.82C216.503 167.439 192.709 166.474 169.07 164.145C147.147 161.986 125.255 158.751 104.236 153.095C66.1252 142.841 30.3475 123.255 13.286 92.3655C4.99169 77.344 1.08604 58.9355 7.7873 42.9995C14.2727 27.5886 31.2314 17.8424 48.9199 11.9828C69.2806 5.24266 91.5941 2.24514 113.394 1.11049C136.211 -0.0749707 159.121 0.99196 181.794 3.21893C205.721 5.56445 229.432 9.17162 253.144 12.6857C275.437 15.988 297.74 19.0109 320.218 21.3564C361.607 25.6664 405.957 29.2652 442.012 48.1732C457.707 56.4037 472.517 68.7155 476.402 84.2197C480.647 101.18 469.239 117.285 453.524 127.591C445.281 133.001 435.876 137.091 426.266 140.588C415.783 144.399 404.97 147.625 394.014 150.411C372.482 155.889 350.302 159.564 327.968 161.943C305.654 164.331 283.155 165.449 260.657 165.822C238.22 166.194 215.742 165.745 193.377 164.111C170.694 162.451 148.123 159.547 126.036 154.992C104.914 150.639 83.9164 144.924 64.4191 136.888C46.2065 129.386 28.8675 119.335 16.8833 105.566C5.3103 92.2893 -1.51429 75.4049 1.40466 58.9948C4.11805 43.7193 15.5061 30.7724 30.5017 21.8899C46.6998 12.2962 66.0533 7.59664 85.787 6.26723C108.419 4.75154 131.092 7.24948 153.478 9.73894C153.982 9.80668 154.197 9.19702 153.704 9.13775Z" fill="white"/>
</svg>
