<svg width="544" height="14" viewBox="0 0 544 14" fill="none" xmlns="http://www.w3.org/2000/svg">
<path d="M65.02 3.65031C127.67 2.98984 190.26 5.86034 252.82 8.24819C314.92 10.6191 377.16 12.5158 439.3 9.91631C474.19 8.45988 509.01 5.54704 543.47 0.627385C543.88 0.568112 543.79 -0.0246094 543.37 0.00079326C472.57 4.95432 401.8 9.48446 330.72 9.51833C260.15 9.56067 189.63 6.67323 119.06 6.85951C79.45 6.96112 39.82 8.06192 0.36 11.1272C-0.12 11.161 -0.12 11.7961 0.36 11.7622C71.05 6.26679 142.11 7.17282 213 8.5361C283.6 9.89091 354.12 11.2118 424.68 7.97724C464.3 6.15671 503.84 3.39628 543.38 0.627385C543.35 0.415696 543.31 0.212482 543.28 0.00079326C481.53 8.824 418.8 11.034 356.27 10.4244C293.99 9.8147 231.82 6.50388 169.6 4.48013C134.76 3.34548 99.9 2.6342 65.04 2.99831C64.54 3.01524 64.54 3.65031 65.02 3.65031Z" fill="white"/>
<path d="M471.52 2.60873C414.63 3.0067 357.85 6.19897 301.08 8.9848C245.15 11.7283 189.11 13.9637 133.09 12.3634C100.54 11.4319 68.0304 9.19649 35.7904 5.27601C35.7604 5.48769 35.7204 5.69092 35.6904 5.90261C68.7004 7.57919 101.71 9.25577 134.75 10.3227C167.31 11.3727 199.87 11.6182 232.45 11.3557C260.87 11.1271 289.29 10.5259 317.71 9.98397C344.79 9.46745 371.87 9.03561 398.96 9.15415C428.59 9.28117 458.21 10.0856 487.78 11.6267C491.89 11.8384 496 12.067 500.11 12.3126C500.59 12.338 500.59 11.7029 500.11 11.6775C469.95 9.90776 439.74 8.88319 409.51 8.59529C382.19 8.3328 354.88 8.6715 327.56 9.16262C299.51 9.67067 271.46 10.3142 243.41 10.619C211.35 10.9662 179.29 10.9323 147.25 10.0602C114.2 9.16261 81.1904 7.57072 48.1904 5.90261C44.0204 5.69092 39.8604 5.47923 35.6904 5.26754C35.2804 5.25061 35.1704 5.84333 35.5904 5.89413C91.9504 12.7529 148.93 14.3194 205.8 13.2101C262.19 12.1093 318.46 8.56142 374.78 6.02962C407.01 4.58166 439.26 3.48088 471.53 3.25226C472 3.23532 472 2.60026 471.52 2.60873Z" fill="white"/>
</svg>
