<svg width="460" height="11" viewBox="0 0 460 11" fill="none" xmlns="http://www.w3.org/2000/svg">
<path d="M9.98385 9.9123C53.4739 9.90383 96.9638 9.90383 140.454 9.89536C183.354 9.88689 226.364 10.6066 269.224 8.85385C292.854 7.88855 316.444 5.99181 339.734 2.4185C340.154 2.35076 340.044 1.80037 339.634 1.7919C295.134 1.58868 250.624 1.37699 206.124 1.17377C162.234 0.970547 118.284 0.276206 74.4038 1.36005C49.6638 1.96972 24.9438 3.26526 0.363837 5.77166C-0.106163 5.82246 -0.136163 6.40672 0.363837 6.40672C60.5238 6.8047 120.694 7.19421 180.854 7.59218C211.084 7.78694 241.324 7.99016 271.554 8.18491C301.054 8.37967 330.574 8.62523 360.074 7.93089C393.214 7.15187 426.354 5.14506 459.094 0.614909C459.574 0.547169 459.364 -0.0624962 458.894 0.00524428C399.994 8.14258 340.164 7.99863 280.664 7.60912C220.834 7.23655 160.994 6.83857 101.154 6.44906C67.5638 6.22044 33.9638 6.00028 0.373847 5.78012C0.373847 5.99181 0.373847 6.2035 0.373847 6.41519C44.1438 1.94432 88.2738 1.39393 132.314 1.48707C176.424 1.58021 220.544 1.87658 264.654 2.0798C289.654 2.19834 314.644 2.30842 339.644 2.42697C339.614 2.21528 339.574 2.01206 339.544 1.80037C297.454 8.25265 254.594 9.12481 211.924 9.22642C169.024 9.3365 126.124 9.25183 83.2338 9.25183C58.8139 9.25183 34.4038 9.26029 9.98385 9.26029C9.49385 9.27723 9.49385 9.9123 9.98385 9.9123Z" fill="white"/>
</svg>
