<svg width="1920" height="1208" viewBox="0 0 1920 1208" fill="none" xmlns="http://www.w3.org/2000/svg">
<g clip-path="url(#clip0_2942_5849)">
<g opacity="0.45">
<path d="M1920 0H0.0100098V1208H1920V0Z" fill="#210837"/>
<mask id="mask0_2942_5849" style="mask-type:luminance" maskUnits="userSpaceOnUse" x="0" y="0" width="1920" height="1208">
<path d="M1920 0H0.0100098V1208H1920V0Z" fill="white"/>
</mask>
<g mask="url(#mask0_2942_5849)">
<path d="M36.187 501.952L-647.226 1351.29H-390.487L296.895 501.952L-383.658 -347.653H-645.506L36.187 501.952Z" fill="url(#paint0_linear_2942_5849)"/>
<path d="M713.701 501.982L-103.831 1518H203.293L1025.57 501.982L211.472 -514.364H-101.761L713.701 501.982Z" fill="url(#paint1_linear_2942_5849)"/>
<path d="M1274.51 501.952L591.101 1351.29H847.839L1535.22 501.952L854.679 -347.653H592.83L1274.51 501.952Z" fill="url(#paint2_linear_2942_5849)"/>
<path d="M1657.15 501.952L973.739 1351.29H1230.48L1917.86 501.952L1237.32 -347.653H975.469L1657.15 501.952Z" fill="url(#paint3_linear_2942_5849)"/>
</g>
<path d="M193.434 26.1934H0V1106.01H193.434V26.1934Z" fill="#210837"/>
<mask id="mask1_2942_5849" style="mask-type:luminance" maskUnits="userSpaceOnUse" x="0" y="26" width="194" height="1081">
<path d="M193.434 26.1934H0V1106.01H193.434V26.1934Z" fill="white"/>
</mask>
<g mask="url(#mask1_2942_5849)">
<path d="M1.40985 501.952L-682.003 1351.29H-425.265L262.118 501.952L-418.425 -347.653H-680.273L1.40985 501.952Z" fill="url(#paint4_linear_2942_5849)"/>
<path d="M730.089 501.952L46.686 1351.29H303.425L990.797 501.952L310.254 -347.653H48.4059L730.089 501.952Z" fill="url(#paint5_linear_2942_5849)"/>
</g>
</g>
<g clip-path="url(#clip1_2942_5849)">
<path d="M1920.29 -1091H0.0500488V10002.6H1920.29V-1091Z" fill="#210837"/>
<g opacity="0.45">
<path d="M1920.24 -1091H0.0900879V1219.77H1920.24V-1091Z" fill="#210837"/>
<mask id="mask2_2942_5849" style="mask-type:luminance" maskUnits="userSpaceOnUse" x="0" y="-1091" width="1921" height="2311">
<path d="M1920.24 -1091H0.0900879V1219.77H1920.24V-1091Z" fill="white"/>
</mask>
<g mask="url(#mask2_2942_5849)">
<path d="M36.2601 370.53L-647.21 1219.77H-390.45L296.99 370.53L-383.61 -478.97H-645.48L36.2601 370.53Z" fill="url(#paint6_linear_2942_5849)"/>
<path d="M578.56 370.6L-419.36 1610.55H-44.4699L959.25 370.6L-34.4899 -869.76H-416.84L578.56 370.6Z" fill="url(#paint7_linear_2942_5849)"/>
<path d="M1390.12 370.53L706.65 1219.77H963.41L1650.85 370.53L555.27 -1002.97H293.4L1390.12 370.53Z" fill="url(#paint8_linear_2942_5849)"/>
<path d="M1772.3 370.53L1088.83 1219.77H1345.59L2033.03 370.53L937.45 -1002.97H675.58L1772.3 370.53Z" fill="url(#paint9_linear_2942_5849)"/>
<path d="M2416.47 32.53L1361.11 -1284.74H955.04L2012.18 32.53" fill="url(#paint10_linear_2942_5849)"/>
</g>
<path d="M193.52 -105.17H0.0700684V740.53H193.52V-105.17Z" fill="#210837"/>
<mask id="mask3_2942_5849" style="mask-type:luminance" maskUnits="userSpaceOnUse" x="0" y="-106" width="194" height="847">
<path d="M193.52 -105.17H0.0700684V740.53H193.52V-105.17Z" fill="white"/>
</mask>
<g mask="url(#mask3_2942_5849)">
<path d="M1.48999 370.53L-681.98 1219.77H-425.22L262.22 370.53L-418.39 -478.97H-680.26L1.48999 370.53Z" fill="url(#paint11_linear_2942_5849)"/>
<path d="M730.23 370.53L46.76 1219.77H303.52L990.96 370.53L310.35 -478.97H48.48L730.23 370.53Z" fill="url(#paint12_linear_2942_5849)"/>
</g>
</g>
<path d="M1920.29 -1091H0.0700684V15.49H1920.29V-1091Z" fill="url(#paint13_linear_2942_5849)"/>
</g>
<path d="M1157.98 350.912C1201.47 350.904 1244.96 350.904 1288.45 350.895C1331.35 350.887 1374.36 351.607 1417.22 349.854C1440.85 348.889 1464.44 346.992 1487.73 343.419C1488.15 343.351 1488.04 342.8 1487.63 342.792C1443.13 342.589 1398.62 342.377 1354.12 342.174C1310.23 341.971 1266.28 341.276 1222.4 342.36C1197.66 342.97 1172.94 344.265 1148.36 346.772C1147.89 346.822 1147.86 347.407 1148.36 347.407C1208.52 347.805 1268.69 348.194 1328.85 348.592C1359.08 348.787 1389.32 348.99 1419.55 349.185C1449.05 349.38 1478.57 349.625 1508.07 348.931C1541.21 348.152 1574.35 346.145 1607.09 341.615C1607.57 341.547 1607.36 340.938 1606.89 341.005C1547.99 349.143 1488.16 348.999 1428.66 348.609C1368.83 348.237 1308.99 347.839 1249.15 347.449C1215.56 347.22 1181.96 347 1148.37 346.78C1148.37 346.992 1148.37 347.204 1148.37 347.415C1192.14 342.944 1236.27 342.394 1280.31 342.487C1324.42 342.58 1368.54 342.877 1412.65 343.08C1437.65 343.198 1462.64 343.308 1487.64 343.427C1487.61 343.215 1487.57 343.012 1487.54 342.8C1445.45 349.253 1402.59 350.125 1359.92 350.226C1317.02 350.337 1274.12 350.252 1231.23 350.252C1206.81 350.252 1182.4 350.26 1157.98 350.26C1157.49 350.277 1157.49 350.912 1157.98 350.912Z" fill="white"/>
<path d="M357.02 547.65C419.67 546.99 482.26 549.86 544.82 552.248C606.92 554.619 669.16 556.516 731.3 553.916C766.19 552.46 801.01 549.547 835.47 544.627C835.88 544.568 835.79 543.975 835.37 544.001C764.57 548.954 693.8 553.484 622.72 553.518C552.15 553.561 481.63 550.673 411.06 550.86C371.45 550.961 331.82 552.062 292.36 555.127C291.88 555.161 291.88 555.796 292.36 555.762C363.05 550.267 434.11 551.173 505 552.536C575.6 553.891 646.12 555.212 716.68 551.977C756.3 550.157 795.84 547.396 835.38 544.627C835.35 544.416 835.31 544.212 835.28 544.001C773.53 552.824 710.8 555.034 648.27 554.424C585.99 553.815 523.82 550.504 461.6 548.48C426.76 547.345 391.9 546.634 357.04 546.998C356.54 547.015 356.54 547.65 357.02 547.65Z" fill="white"/>
<path d="M763.52 546.609C706.63 547.007 649.85 550.199 593.08 552.985C537.15 555.728 481.11 557.964 425.09 556.363C392.54 555.432 360.03 553.196 327.79 549.276C327.76 549.488 327.72 549.691 327.69 549.903C360.7 551.579 393.71 553.256 426.75 554.323C459.31 555.373 491.87 555.618 524.45 555.356C552.87 555.127 581.29 554.526 609.71 553.984C636.79 553.467 663.87 553.036 690.96 553.154C720.59 553.281 750.21 554.086 779.78 555.627C783.89 555.838 788 556.067 792.11 556.313C792.59 556.338 792.59 555.703 792.11 555.677C761.95 553.908 731.74 552.883 701.51 552.595C674.19 552.333 646.88 552.671 619.56 553.163C591.51 553.671 563.46 554.314 535.41 554.619C503.35 554.966 471.29 554.932 439.25 554.06C406.2 553.163 373.19 551.571 340.19 549.903C336.02 549.691 331.86 549.479 327.69 549.268C327.28 549.251 327.17 549.843 327.59 549.894C383.95 556.753 440.93 558.319 497.8 557.21C554.19 556.109 610.46 552.561 666.78 550.03C699.01 548.582 731.26 547.481 763.53 547.252C764 547.235 764 546.6 763.52 546.609Z" fill="white"/>
<path d="M982.704 816.138C940.739 811.464 893.553 806.917 857.467 829.356C843.119 838.28 832.327 850.973 829.685 865.825C826.848 881.778 833.056 898.18 843.931 911.347C855.421 925.251 872.308 935.556 890.243 943.253C909.669 951.593 930.728 957.47 951.891 961.983C996.919 971.594 1043.76 974.236 1090.13 973.448C1136.42 972.661 1183.18 968.723 1227.41 956.936C1247.72 951.526 1269.22 944.963 1285.6 933.337C1300.06 923.066 1310.02 907.638 1306.31 891.618C1302.82 876.596 1289.05 864.462 1274.17 856.113C1256.83 846.384 1236.44 840.499 1216.17 836.519C1194.98 832.353 1173.3 830.219 1151.72 827.984C1127.72 825.494 1103.9 822.277 1080.1 818.746C1032.69 811.709 984.564 804.453 936.196 807.873C914.777 809.389 892.73 812.7 873.028 820.041C856.182 826.316 840.95 836.443 835.42 851.498C829.675 867.163 833.478 884.776 841.495 899.416C849.398 913.853 861.907 926.479 876.779 936.436C910.789 959.231 955.519 967.589 998.09 971.789C1022.8 974.227 1047.69 975.176 1072.57 975.514C1097.26 975.853 1122.03 975.972 1146.72 975.32C1170.52 974.693 1194.38 972.805 1217.34 967.385C1238.61 962.373 1259.35 954.693 1277.59 944.354C1285.58 939.823 1293.09 934.455 1298.26 927.622C1302.48 922.05 1305.07 915.708 1306.13 909.205C1308.28 895.987 1304.23 882.109 1295.24 871.041C1284.21 857.451 1266.2 850.601 1247.91 845.656C1225.09 839.491 1201.64 834.927 1178.08 831.134C1154.33 827.306 1130.39 824.292 1106.45 821.362C1082.29 818.399 1058.15 815.147 1033.91 812.641C988.511 807.95 940.77 806.747 897.53 821.015C879.369 827.01 861.794 835.672 849.522 848.484C843.982 854.267 839.665 860.889 837.568 868.078C835.061 876.681 836.171 885.572 839.151 893.989C849.604 923.456 877.262 948.283 910.111 962.085C925.682 968.63 942.64 972.796 960.051 974.134C960.545 974.168 960.545 973.533 960.051 973.499C923.76 970.705 889.616 955.421 866.028 932.651C853.653 920.704 843.581 906.3 838.956 890.991C836.356 882.371 836.088 873.429 839.439 864.928C842.399 857.417 847.764 850.668 854.25 844.902C868.012 832.666 886.584 824.614 905.537 819.228C925.99 813.42 947.625 810.769 969.199 810.177C992.859 809.525 1016.52 811.345 1039.94 813.919C1063.58 816.51 1087.14 819.626 1110.73 822.522C1156.58 828.162 1202.69 834.241 1246.91 846.062C1265.72 851.092 1284.23 858.069 1295.26 872.227C1304.19 883.709 1307.92 898.104 1304.9 911.55C1303.44 918.036 1300.38 924.277 1295.68 929.637C1289.37 936.851 1280.49 942.245 1271.41 946.902C1252.62 956.555 1232 963.77 1210.53 968.224C1187.73 972.957 1164.17 974.363 1140.74 974.803C1116.94 975.252 1093.08 975.193 1069.29 974.82C1045.5 974.439 1021.71 973.474 998.07 971.145C976.147 968.986 954.255 965.751 933.236 960.095C895.125 949.841 859.348 930.255 842.286 899.365C833.992 884.344 830.086 865.936 836.787 850C843.273 834.589 860.231 824.842 877.92 818.983C898.281 812.243 920.594 809.245 942.394 808.11C965.211 806.925 988.121 807.992 1010.79 810.219C1034.72 812.564 1058.43 816.172 1082.14 819.686C1104.44 822.988 1126.74 826.011 1149.22 828.356C1190.61 832.666 1234.96 836.265 1271.01 855.173C1286.71 863.404 1301.52 875.716 1305.4 891.22C1309.65 908.18 1298.24 924.285 1282.52 934.591C1274.28 940.001 1264.88 944.091 1255.27 947.588C1244.78 951.399 1233.97 954.625 1223.01 957.411C1201.48 962.889 1179.3 966.564 1156.97 968.943C1134.65 971.331 1112.16 972.449 1089.66 972.822C1067.22 973.194 1044.74 972.745 1022.38 971.111C999.694 969.451 977.123 966.547 955.036 961.992C933.914 957.639 912.916 951.924 893.419 943.888C875.206 936.386 857.867 926.335 845.883 912.566C834.31 899.289 827.486 882.405 830.405 865.995C833.118 850.719 844.506 837.772 859.502 828.89C875.7 819.296 895.053 814.597 914.787 813.267C937.419 811.752 960.092 814.249 982.478 816.739C982.982 816.807 983.197 816.197 982.704 816.138Z" fill="white"/>
<path d="M319.913 325V217.627H399.527V235.791H341.593V259.595H395.499V277.686H341.593V306.909H401.578V325H319.913ZM490.567 325H469.986V285.303C469.986 276.904 469.547 271.484 468.668 269.043C467.789 266.553 466.349 264.624 464.347 263.257C462.394 261.89 460.025 261.206 457.242 261.206C453.678 261.206 450.479 262.183 447.647 264.136C444.815 266.089 442.862 268.677 441.788 271.899C440.763 275.122 440.25 281.079 440.25 289.771V325H419.669V247.217H438.785V258.643C445.572 249.854 454.117 245.459 464.42 245.459C468.961 245.459 473.111 246.289 476.871 247.949C480.631 249.561 483.463 251.636 485.367 254.175C487.32 256.714 488.663 259.595 489.396 262.817C490.177 266.04 490.567 270.654 490.567 276.66V325ZM579.337 270.215L559.049 273.877C558.365 269.824 556.803 266.772 554.361 264.722C551.969 262.671 548.844 261.646 544.986 261.646C539.859 261.646 535.758 263.428 532.682 266.992C529.654 270.508 528.141 276.416 528.141 284.717C528.141 293.945 529.679 300.464 532.755 304.272C535.88 308.081 540.055 309.985 545.279 309.985C549.186 309.985 552.384 308.887 554.874 306.689C557.364 304.443 559.122 300.61 560.147 295.19L580.362 298.633C578.263 307.91 574.234 314.917 568.277 319.653C562.32 324.39 554.337 326.758 544.327 326.758C532.95 326.758 523.868 323.169 517.081 315.991C510.343 308.813 506.974 298.877 506.974 286.182C506.974 273.34 510.367 263.354 517.154 256.226C523.941 249.048 533.121 245.459 544.693 245.459C554.166 245.459 561.686 247.51 567.252 251.611C572.867 255.664 576.896 261.865 579.337 270.215ZM590.25 285.01C590.25 278.174 591.935 271.558 595.304 265.161C598.673 258.765 603.434 253.882 609.586 250.513C615.787 247.144 622.696 245.459 630.313 245.459C642.081 245.459 651.725 249.292 659.244 256.958C666.764 264.575 670.523 274.219 670.523 285.889C670.523 297.656 666.715 307.422 659.098 315.186C651.529 322.9 641.983 326.758 630.46 326.758C623.331 326.758 616.52 325.146 610.025 321.924C603.58 318.701 598.673 313.989 595.304 307.788C591.935 301.538 590.25 293.945 590.25 285.01ZM611.344 286.108C611.344 293.823 613.175 299.731 616.837 303.833C620.499 307.935 625.016 309.985 630.387 309.985C635.758 309.985 640.25 307.935 643.863 303.833C647.525 299.731 649.356 293.774 649.356 285.962C649.356 278.345 647.525 272.485 643.863 268.384C640.25 264.282 635.758 262.231 630.387 262.231C625.016 262.231 620.499 264.282 616.837 268.384C613.175 272.485 611.344 278.394 611.344 286.108ZM737.906 325V313.354C735.074 317.505 731.339 320.776 726.7 323.169C722.11 325.562 717.252 326.758 712.125 326.758C706.9 326.758 702.213 325.61 698.062 323.315C693.912 321.021 690.909 317.798 689.054 313.647C687.198 309.497 686.271 303.76 686.271 296.436V247.217H706.852V282.959C706.852 293.896 707.218 300.61 707.95 303.101C708.731 305.542 710.123 307.495 712.125 308.96C714.127 310.376 716.666 311.084 719.742 311.084C723.258 311.084 726.407 310.132 729.19 308.228C731.974 306.274 733.878 303.882 734.903 301.05C735.929 298.169 736.441 291.162 736.441 280.029V247.217H757.022V325H737.906ZM798.111 325H777.53V247.217H796.646V258.276C799.918 253.052 802.848 249.609 805.436 247.949C808.072 246.289 811.051 245.459 814.371 245.459C819.059 245.459 823.575 246.753 827.921 249.341L821.549 267.285C818.082 265.039 814.859 263.916 811.881 263.916C809 263.916 806.559 264.722 804.557 266.333C802.555 267.896 800.968 270.752 799.796 274.902C798.673 279.053 798.111 287.744 798.111 300.977V325ZM852.237 270.947L833.561 267.578C835.66 260.059 839.273 254.492 844.4 250.879C849.527 247.266 857.145 245.459 867.252 245.459C876.432 245.459 883.268 246.558 887.76 248.755C892.252 250.903 895.401 253.662 897.208 257.031C899.063 260.352 899.991 266.479 899.991 275.415L899.771 299.438C899.771 306.274 900.089 311.328 900.724 314.6C901.407 317.822 902.652 321.289 904.459 325H884.098C883.561 323.633 882.901 321.606 882.12 318.921C881.778 317.7 881.534 316.895 881.388 316.504C877.872 319.922 874.112 322.485 870.108 324.194C866.104 325.903 861.832 326.758 857.291 326.758C849.283 326.758 842.96 324.585 838.321 320.239C833.731 315.894 831.437 310.4 831.437 303.76C831.437 299.365 832.486 295.459 834.586 292.041C836.686 288.574 839.615 285.938 843.375 284.131C847.184 282.275 852.652 280.664 859.781 279.297C869.4 277.49 876.065 275.806 879.776 274.243V272.192C879.776 268.237 878.8 265.43 876.847 263.77C874.894 262.061 871.207 261.206 865.787 261.206C862.125 261.206 859.269 261.938 857.218 263.403C855.167 264.819 853.507 267.334 852.237 270.947ZM879.776 287.646C877.14 288.525 872.965 289.575 867.252 290.796C861.539 292.017 857.804 293.213 856.046 294.385C853.36 296.289 852.018 298.706 852.018 301.636C852.018 304.517 853.092 307.007 855.24 309.106C857.389 311.206 860.123 312.256 863.443 312.256C867.154 312.256 870.694 311.035 874.063 308.594C876.554 306.738 878.189 304.468 878.971 301.782C879.508 300.024 879.776 296.68 879.776 291.748V287.646ZM918.448 330.127L941.959 332.983C942.35 335.718 943.253 337.598 944.669 338.623C946.622 340.088 949.698 340.82 953.897 340.82C959.269 340.82 963.297 340.015 965.982 338.403C967.789 337.329 969.156 335.596 970.084 333.203C970.719 331.494 971.036 328.345 971.036 323.755V312.402C964.884 320.801 957.12 325 947.745 325C937.296 325 929.02 320.581 922.916 311.743C918.131 304.761 915.738 296.069 915.738 285.669C915.738 272.632 918.863 262.671 925.113 255.786C931.412 248.901 939.225 245.459 948.551 245.459C958.17 245.459 966.104 249.683 972.354 258.13V247.217H991.617V317.017C991.617 326.196 990.86 333.057 989.347 337.598C987.833 342.139 985.709 345.703 982.975 348.291C980.24 350.879 976.578 352.905 971.988 354.37C967.447 355.835 961.686 356.567 954.703 356.567C941.52 356.567 932.169 354.297 926.651 349.756C921.134 345.264 918.375 339.551 918.375 332.617C918.375 331.934 918.399 331.104 918.448 330.127ZM936.832 284.497C936.832 292.749 938.419 298.804 941.593 302.661C944.815 306.47 948.771 308.374 953.458 308.374C958.487 308.374 962.735 306.421 966.202 302.515C969.669 298.56 971.402 292.725 971.402 285.01C971.402 276.953 969.742 270.972 966.422 267.065C963.102 263.159 958.902 261.206 953.824 261.206C948.893 261.206 944.815 263.135 941.593 266.992C938.419 270.801 936.832 276.636 936.832 284.497ZM1057.1 300.244L1077.6 303.687C1074.97 311.206 1070.79 316.943 1065.08 320.898C1059.42 324.805 1052.31 326.758 1043.77 326.758C1030.24 326.758 1020.23 322.339 1013.74 313.501C1008.61 306.421 1006.05 297.485 1006.05 286.694C1006.05 273.804 1009.42 263.721 1016.15 256.445C1022.89 249.121 1031.41 245.459 1041.71 245.459C1053.29 245.459 1062.42 249.292 1069.11 256.958C1075.8 264.575 1079 276.27 1078.7 292.041H1027.14C1027.29 298.145 1028.95 302.905 1032.12 306.323C1035.29 309.692 1039.25 311.377 1043.99 311.377C1047.21 311.377 1049.92 310.498 1052.12 308.74C1054.31 306.982 1055.97 304.15 1057.1 300.244ZM1058.27 279.443C1058.12 273.486 1056.58 268.97 1053.65 265.894C1050.72 262.769 1047.16 261.206 1042.96 261.206C1038.47 261.206 1034.76 262.842 1031.83 266.113C1028.9 269.385 1027.46 273.828 1027.51 279.443H1058.27ZM1095.55 325V304.419H1116.13V325H1095.55ZM1178.9 325V217.627H1211.34L1230.83 290.869L1250.09 217.627H1282.61V325H1262.47V240.479L1241.15 325H1220.28L1199.04 240.479V325H1178.9ZM1299.23 285.01C1299.23 278.174 1300.92 271.558 1304.29 265.161C1307.66 258.765 1312.42 253.882 1318.57 250.513C1324.77 247.144 1331.68 245.459 1339.3 245.459C1351.07 245.459 1360.71 249.292 1368.23 256.958C1375.75 264.575 1379.51 274.219 1379.51 285.889C1379.51 297.656 1375.7 307.422 1368.08 315.186C1360.51 322.9 1350.97 326.758 1339.44 326.758C1332.32 326.758 1325.5 325.146 1319.01 321.924C1312.56 318.701 1307.66 313.989 1304.29 307.788C1300.92 301.538 1299.23 293.945 1299.23 285.01ZM1320.33 286.108C1320.33 293.823 1322.16 299.731 1325.82 303.833C1329.48 307.935 1334 309.985 1339.37 309.985C1344.74 309.985 1349.23 307.935 1352.85 303.833C1356.51 299.731 1358.34 293.774 1358.34 285.962C1358.34 278.345 1356.51 272.485 1352.85 268.384C1349.23 264.282 1344.74 262.231 1339.37 262.231C1334 262.231 1329.48 264.282 1325.82 268.384C1322.16 272.485 1320.33 278.394 1320.33 286.108ZM1417.08 325L1385.73 247.217H1407.34L1421.99 286.914L1426.24 300.171C1427.36 296.802 1428.07 294.58 1428.36 293.506C1429.04 291.309 1429.78 289.111 1430.56 286.914L1445.35 247.217H1466.52L1435.61 325H1417.08ZM1524.23 300.244L1544.74 303.687C1542.11 311.206 1537.93 316.943 1532.22 320.898C1526.55 324.805 1519.45 326.758 1510.9 326.758C1497.38 326.758 1487.37 322.339 1480.88 313.501C1475.75 306.421 1473.18 297.485 1473.18 286.694C1473.18 273.804 1476.55 263.721 1483.29 256.445C1490.03 249.121 1498.55 245.459 1508.85 245.459C1520.43 245.459 1529.56 249.292 1536.25 256.958C1542.94 264.575 1546.13 276.27 1545.84 292.041H1494.28C1494.42 298.145 1496.08 302.905 1499.26 306.323C1502.43 309.692 1506.39 311.377 1511.12 311.377C1514.35 311.377 1517.06 310.498 1519.25 308.74C1521.45 306.982 1523.11 304.15 1524.23 300.244ZM1525.41 279.443C1525.26 273.486 1523.72 268.97 1520.79 265.894C1517.86 262.769 1514.3 261.206 1510.1 261.206C1505.61 261.206 1501.9 262.842 1498.97 266.113C1496.04 269.385 1494.6 273.828 1494.64 279.443H1525.41ZM1562.69 325V304.419H1583.27V325H1562.69Z" fill="white"/>
<path d="M319.254 529V421.627H340.934V529H319.254ZM432.267 529H411.686V489.303C411.686 480.904 411.246 475.484 410.367 473.043C409.488 470.553 408.048 468.624 406.046 467.257C404.093 465.89 401.725 465.206 398.941 465.206C395.377 465.206 392.179 466.183 389.347 468.136C386.515 470.089 384.562 472.677 383.487 475.899C382.462 479.122 381.949 485.079 381.949 493.771V529H361.368V451.217H380.484V462.643C387.271 453.854 395.816 449.459 406.119 449.459C410.66 449.459 414.811 450.289 418.57 451.949C422.33 453.561 425.162 455.636 427.066 458.175C429.02 460.714 430.362 463.595 431.095 466.817C431.876 470.04 432.267 474.654 432.267 480.66V529ZM445.963 506.808L466.617 503.658C467.496 507.662 469.278 510.714 471.964 512.813C474.649 514.864 478.409 515.89 483.243 515.89C488.565 515.89 492.569 514.913 495.255 512.96C497.062 511.593 497.965 509.762 497.965 507.467C497.965 505.904 497.477 504.61 496.5 503.585C495.475 502.608 493.18 501.705 489.615 500.875C473.014 497.213 462.491 493.868 458.048 490.841C451.896 486.642 448.819 480.807 448.819 473.336C448.819 466.598 451.48 460.934 456.803 456.344C462.125 451.754 470.377 449.459 481.559 449.459C492.203 449.459 500.113 451.192 505.289 454.659C510.465 458.126 514.029 463.253 515.982 470.04L496.573 473.629C495.743 470.602 494.156 468.282 491.812 466.671C489.518 465.06 486.222 464.254 481.925 464.254C476.505 464.254 472.623 465.011 470.279 466.524C468.717 467.599 467.936 468.99 467.936 470.699C467.936 472.164 468.619 473.409 469.986 474.435C471.842 475.802 478.238 477.73 489.176 480.221C500.162 482.711 507.828 485.763 512.174 489.376C516.471 493.038 518.619 498.141 518.619 504.684C518.619 511.812 515.641 517.94 509.684 523.067C503.727 528.194 494.913 530.758 483.243 530.758C472.647 530.758 464.249 528.609 458.048 524.312C451.896 520.016 447.867 514.181 445.963 506.808ZM536.124 451.217H555.313V462.643C557.804 458.736 561.173 455.562 565.421 453.121C569.669 450.68 574.381 449.459 579.557 449.459C588.59 449.459 596.256 452.999 602.555 460.079C608.854 467.159 612.003 477.022 612.003 489.669C612.003 502.657 608.829 512.765 602.481 519.991C596.134 527.169 588.443 530.758 579.41 530.758C575.113 530.758 571.207 529.903 567.691 528.194C564.225 526.485 560.562 523.556 556.705 519.405V558.59H536.124V451.217ZM556.485 488.79C556.485 497.53 558.219 504 561.686 508.199C565.152 512.35 569.376 514.425 574.356 514.425C579.142 514.425 583.121 512.521 586.295 508.712C589.469 504.854 591.056 498.556 591.056 489.815C591.056 481.661 589.42 475.606 586.148 471.651C582.877 467.696 578.824 465.719 573.99 465.719C568.961 465.719 564.786 467.672 561.466 471.578C558.146 475.436 556.485 481.173 556.485 488.79ZM628.409 440.67V421.627H648.99V440.67H628.409ZM628.409 529V451.217H648.99V529H628.409ZM689.859 529H669.278V451.217H688.395V462.276C691.666 457.052 694.596 453.609 697.184 451.949C699.82 450.289 702.799 449.459 706.119 449.459C710.807 449.459 715.323 450.753 719.669 453.341L713.297 471.285C709.83 469.039 706.607 467.916 703.629 467.916C700.748 467.916 698.307 468.722 696.305 470.333C694.303 471.896 692.716 474.752 691.544 478.902C690.421 483.053 689.859 491.744 689.859 504.977V529ZM773.648 504.244L794.156 507.687C791.52 515.206 787.345 520.943 781.632 524.898C775.968 528.805 768.863 530.758 760.318 530.758C746.793 530.758 736.783 526.339 730.289 517.501C725.162 510.421 722.599 501.485 722.599 490.694C722.599 477.804 725.968 467.721 732.706 460.445C739.444 453.121 747.965 449.459 758.268 449.459C769.84 449.459 778.971 453.292 785.66 460.958C792.35 468.575 795.548 480.27 795.255 496.041H743.692C743.839 502.145 745.499 506.905 748.673 510.323C751.847 513.692 755.802 515.377 760.538 515.377C763.761 515.377 766.471 514.498 768.668 512.74C770.865 510.982 772.525 508.15 773.648 504.244ZM774.82 483.443C774.674 477.486 773.136 472.97 770.206 469.894C767.276 466.769 763.712 465.206 759.513 465.206C755.021 465.206 751.31 466.842 748.38 470.113C745.45 473.385 744.01 477.828 744.059 483.443H774.82ZM812.101 529V508.419H832.682V529H812.101ZM987.003 529H963.419L954.044 504.61H911.124L902.262 529H879.264L921.085 421.627H944.01L987.003 529ZM947.086 486.52L932.291 446.676L917.789 486.52H947.086ZM1069.77 529H1050.65V517.574C1047.48 522.018 1043.72 525.338 1039.37 527.535C1035.07 529.684 1030.73 530.758 1026.33 530.758C1017.4 530.758 1009.73 527.169 1003.34 519.991C996.988 512.765 993.814 502.706 993.814 489.815C993.814 476.632 996.915 466.622 1003.12 459.786C1009.32 452.901 1017.15 449.459 1026.63 449.459C1035.32 449.459 1042.84 453.072 1049.19 460.299V421.627H1069.77V529ZM1014.83 488.424C1014.83 496.725 1015.98 502.73 1018.28 506.441C1021.6 511.812 1026.24 514.498 1032.19 514.498C1036.93 514.498 1040.96 512.496 1044.28 508.492C1047.6 504.439 1049.26 498.409 1049.26 490.401C1049.26 481.466 1047.65 475.045 1044.42 471.139C1041.2 467.184 1037.08 465.206 1032.05 465.206C1027.16 465.206 1023.06 467.159 1019.74 471.065C1016.47 474.923 1014.83 480.709 1014.83 488.424ZM1105.51 474.947L1086.83 471.578C1088.93 464.059 1092.54 458.492 1097.67 454.879C1102.8 451.266 1110.42 449.459 1120.52 449.459C1129.7 449.459 1136.54 450.558 1141.03 452.755C1145.52 454.903 1148.67 457.662 1150.48 461.031C1152.33 464.352 1153.26 470.479 1153.26 479.415L1153.04 503.438C1153.04 510.274 1153.36 515.328 1154 518.6C1154.68 521.822 1155.92 525.289 1157.73 529H1137.37C1136.83 527.633 1136.17 525.606 1135.39 522.921C1135.05 521.7 1134.81 520.895 1134.66 520.504C1131.14 523.922 1127.38 526.485 1123.38 528.194C1119.38 529.903 1115.1 530.758 1110.56 530.758C1102.55 530.758 1096.23 528.585 1091.59 524.239C1087 519.894 1084.71 514.4 1084.71 507.76C1084.71 503.365 1085.76 499.459 1087.86 496.041C1089.96 492.574 1092.89 489.938 1096.65 488.131C1100.46 486.275 1105.92 484.664 1113.05 483.297C1122.67 481.49 1129.34 479.806 1133.05 478.243V476.192C1133.05 472.237 1132.07 469.43 1130.12 467.77C1128.17 466.061 1124.48 465.206 1119.06 465.206C1115.4 465.206 1112.54 465.938 1110.49 467.403C1108.44 468.819 1106.78 471.334 1105.51 474.947ZM1133.05 491.646C1130.41 492.525 1126.24 493.575 1120.52 494.796C1114.81 496.017 1111.08 497.213 1109.32 498.385C1106.63 500.289 1105.29 502.706 1105.29 505.636C1105.29 508.517 1106.36 511.007 1108.51 513.106C1110.66 515.206 1113.39 516.256 1116.71 516.256C1120.43 516.256 1123.97 515.035 1127.33 512.594C1129.83 510.738 1131.46 508.468 1132.24 505.782C1132.78 504.024 1133.05 500.68 1133.05 495.748V491.646ZM1173.04 451.217H1192.23V462.643C1194.72 458.736 1198.09 455.562 1202.33 453.121C1206.58 450.68 1211.29 449.459 1216.47 449.459C1225.5 449.459 1233.17 452.999 1239.47 460.079C1245.77 467.159 1248.92 477.022 1248.92 489.669C1248.92 502.657 1245.74 512.765 1239.4 519.991C1233.05 527.169 1225.36 530.758 1216.32 530.758C1212.03 530.758 1208.12 529.903 1204.61 528.194C1201.14 526.485 1197.48 523.556 1193.62 519.405V558.59H1173.04V451.217ZM1193.4 488.79C1193.4 497.53 1195.13 504 1198.6 508.199C1202.07 512.35 1206.29 514.425 1211.27 514.425C1216.06 514.425 1220.04 512.521 1223.21 508.712C1226.38 504.854 1227.97 498.556 1227.97 489.815C1227.97 481.661 1226.33 475.606 1223.06 471.651C1219.79 467.696 1215.74 465.719 1210.9 465.719C1205.88 465.719 1201.7 467.672 1198.38 471.578C1195.06 475.436 1193.4 481.173 1193.4 488.79ZM1300.99 451.217V467.623H1286.93V498.971C1286.93 505.318 1287.05 509.029 1287.3 510.104C1287.59 511.129 1288.2 511.983 1289.13 512.667C1290.1 513.351 1291.28 513.692 1292.64 513.692C1294.55 513.692 1297.31 513.033 1300.92 511.715L1302.68 527.682C1297.89 529.732 1292.47 530.758 1286.42 530.758C1282.71 530.758 1279.36 530.147 1276.38 528.927C1273.4 527.657 1271.21 526.046 1269.79 524.093C1268.42 522.091 1267.47 519.405 1266.93 516.036C1266.5 513.644 1266.28 508.81 1266.28 501.534V467.623H1256.83V451.217H1266.28V435.763L1286.93 423.751V451.217H1300.99ZM1315.27 529V508.419H1335.86V529H1315.27Z" fill="white"/>
<path d="M319.913 733V625.627H399.527V643.791H341.593V667.595H395.499V685.686H341.593V714.909H401.578V733H319.913ZM409.928 733L437.979 692.937L411.1 655.217H436.222L449.991 676.604L464.493 655.217H488.663L462.296 692.058L491.08 733H465.812L449.991 708.903L434.024 733H409.928ZM502.726 655.217H521.915V666.643C524.405 662.736 527.774 659.562 532.022 657.121C536.271 654.68 540.982 653.459 546.158 653.459C555.191 653.459 562.857 656.999 569.156 664.079C575.455 671.159 578.604 681.022 578.604 693.669C578.604 706.657 575.431 716.765 569.083 723.991C562.735 731.169 555.045 734.758 546.012 734.758C541.715 734.758 537.809 733.903 534.293 732.194C530.826 730.485 527.164 727.556 523.307 723.405V762.59H502.726V655.217ZM523.087 692.79C523.087 701.53 524.82 708 528.287 712.199C531.754 716.35 535.978 718.425 540.958 718.425C545.743 718.425 549.723 716.521 552.896 712.712C556.07 708.854 557.657 702.556 557.657 693.815C557.657 685.661 556.021 679.606 552.75 675.651C549.479 671.696 545.426 669.719 540.592 669.719C535.562 669.719 531.388 671.672 528.067 675.578C524.747 679.436 523.087 685.173 523.087 692.79ZM610.392 678.947L591.715 675.578C593.814 668.059 597.428 662.492 602.555 658.879C607.682 655.266 615.299 653.459 625.406 653.459C634.586 653.459 641.422 654.558 645.914 656.755C650.406 658.903 653.556 661.662 655.362 665.031C657.218 668.352 658.146 674.479 658.146 683.415L657.926 707.438C657.926 714.274 658.243 719.328 658.878 722.6C659.562 725.822 660.807 729.289 662.613 733H642.252C641.715 731.633 641.056 729.606 640.274 726.921C639.933 725.7 639.688 724.895 639.542 724.504C636.026 727.922 632.267 730.485 628.263 732.194C624.259 733.903 619.986 734.758 615.445 734.758C607.438 734.758 601.114 732.585 596.476 728.239C591.886 723.894 589.591 718.4 589.591 711.76C589.591 707.365 590.641 703.459 592.74 700.041C594.84 696.574 597.77 693.938 601.529 692.131C605.338 690.275 610.807 688.664 617.936 687.297C627.555 685.49 634.22 683.806 637.931 682.243V680.192C637.931 676.237 636.954 673.43 635.001 671.77C633.048 670.061 629.361 669.206 623.941 669.206C620.279 669.206 617.423 669.938 615.372 671.403C613.321 672.819 611.661 675.334 610.392 678.947ZM637.931 695.646C635.294 696.525 631.119 697.575 625.406 698.796C619.693 700.017 615.958 701.213 614.2 702.385C611.515 704.289 610.172 706.706 610.172 709.636C610.172 712.517 611.246 715.007 613.395 717.106C615.543 719.206 618.277 720.256 621.598 720.256C625.309 720.256 628.849 719.035 632.218 716.594C634.708 714.738 636.344 712.468 637.125 709.782C637.662 708.024 637.931 704.68 637.931 699.748V695.646ZM749.259 733H728.678V693.303C728.678 684.904 728.238 679.484 727.359 677.043C726.48 674.553 725.04 672.624 723.038 671.257C721.085 669.89 718.717 669.206 715.934 669.206C712.369 669.206 709.171 670.183 706.339 672.136C703.507 674.089 701.554 676.677 700.479 679.899C699.454 683.122 698.941 689.079 698.941 697.771V733H678.36V655.217H697.477V666.643C704.264 657.854 712.809 653.459 723.111 653.459C727.652 653.459 731.803 654.289 735.562 655.949C739.322 657.561 742.154 659.636 744.059 662.175C746.012 664.714 747.354 667.595 748.087 670.817C748.868 674.04 749.259 678.654 749.259 684.66V733ZM841.544 733H822.428V721.574C819.254 726.018 815.494 729.338 811.148 731.535C806.852 733.684 802.506 734.758 798.111 734.758C789.176 734.758 781.51 731.169 775.113 723.991C768.766 716.765 765.592 706.706 765.592 693.815C765.592 680.632 768.692 670.622 774.894 663.786C781.095 656.901 788.932 653.459 798.404 653.459C807.096 653.459 814.615 657.072 820.963 664.299V625.627H841.544V733ZM786.612 692.424C786.612 700.725 787.76 706.73 790.055 710.441C793.375 715.812 798.014 718.498 803.971 718.498C808.707 718.498 812.735 716.496 816.056 712.492C819.376 708.439 821.036 702.409 821.036 694.401C821.036 685.466 819.425 679.045 816.202 675.139C812.979 671.184 808.854 669.206 803.824 669.206C798.941 669.206 794.84 671.159 791.52 675.065C788.248 678.923 786.612 684.709 786.612 692.424ZM861.905 733V712.419H882.486V733H861.905ZM945.621 733V625.627H991.251C1002.73 625.627 1011.05 626.604 1016.23 628.557C1021.45 630.461 1025.63 633.879 1028.75 638.811C1031.88 643.742 1033.44 649.382 1033.44 655.729C1033.44 663.786 1031.07 670.451 1026.33 675.725C1021.6 680.949 1014.52 684.245 1005.09 685.612C1009.78 688.347 1013.64 691.35 1016.67 694.621C1019.74 697.893 1023.87 703.703 1029.04 712.053L1042.15 733H1016.23L1000.55 709.636C994.986 701.286 991.178 696.037 989.127 693.889C987.076 691.691 984.903 690.202 982.608 689.421C980.313 688.591 976.676 688.176 971.695 688.176H967.301V733H945.621ZM967.301 671.037H983.341C993.741 671.037 1000.24 670.598 1002.82 669.719C1005.41 668.84 1007.44 667.326 1008.9 665.178C1010.37 663.029 1011.1 660.344 1011.1 657.121C1011.1 653.508 1010.12 650.603 1008.17 648.405C1006.27 646.159 1003.56 644.743 1000.04 644.157C998.282 643.913 993.009 643.791 984.22 643.791H967.301V671.037ZM1098.84 708.244L1119.35 711.687C1116.71 719.206 1112.54 724.943 1106.83 728.898C1101.16 732.805 1094.06 734.758 1085.51 734.758C1071.99 734.758 1061.98 730.339 1055.48 721.501C1050.36 714.421 1047.79 705.485 1047.79 694.694C1047.79 681.804 1051.16 671.721 1057.9 664.445C1064.64 657.121 1073.16 653.459 1083.46 653.459C1095.04 653.459 1104.17 657.292 1110.86 664.958C1117.54 672.575 1120.74 684.27 1120.45 700.041H1068.89C1069.03 706.145 1070.69 710.905 1073.87 714.323C1077.04 717.692 1081 719.377 1085.73 719.377C1088.96 719.377 1091.67 718.498 1093.86 716.74C1096.06 714.982 1097.72 712.15 1098.84 708.244ZM1100.02 687.443C1099.87 681.486 1098.33 676.97 1095.4 673.894C1092.47 670.769 1088.91 669.206 1084.71 669.206C1080.22 669.206 1076.5 670.842 1073.58 674.113C1070.65 677.385 1069.21 681.828 1069.25 687.443H1100.02ZM1152.68 678.947L1134 675.578C1136.1 668.059 1139.71 662.492 1144.84 658.879C1149.97 655.266 1157.58 653.459 1167.69 653.459C1176.87 653.459 1183.71 654.558 1188.2 656.755C1192.69 658.903 1195.84 661.662 1197.65 665.031C1199.5 668.352 1200.43 674.479 1200.43 683.415L1200.21 707.438C1200.21 714.274 1200.53 719.328 1201.16 722.6C1201.85 725.822 1203.09 729.289 1204.9 733H1184.54C1184 731.633 1183.34 729.606 1182.56 726.921C1182.22 725.7 1181.97 724.895 1181.83 724.504C1178.31 727.922 1174.55 730.485 1170.55 732.194C1166.54 733.903 1162.27 734.758 1157.73 734.758C1149.72 734.758 1143.4 732.585 1138.76 728.239C1134.17 723.894 1131.88 718.4 1131.88 711.76C1131.88 707.365 1132.93 703.459 1135.03 700.041C1137.12 696.574 1140.05 693.938 1143.81 692.131C1147.62 690.275 1153.09 688.664 1160.22 687.297C1169.84 685.49 1176.5 683.806 1180.22 682.243V680.192C1180.22 676.237 1179.24 673.43 1177.29 671.77C1175.33 670.061 1171.65 669.206 1166.23 669.206C1162.56 669.206 1159.71 669.938 1157.66 671.403C1155.61 672.819 1153.95 675.334 1152.68 678.947ZM1180.22 695.646C1177.58 696.525 1173.4 697.575 1167.69 698.796C1161.98 700.017 1158.24 701.213 1156.49 702.385C1153.8 704.289 1152.46 706.706 1152.46 709.636C1152.46 712.517 1153.53 715.007 1155.68 717.106C1157.83 719.206 1160.56 720.256 1163.88 720.256C1167.59 720.256 1171.13 719.035 1174.5 716.594C1176.99 714.738 1178.63 712.468 1179.41 709.782C1179.95 708.024 1180.22 704.68 1180.22 699.748V695.646ZM1288.61 678.215L1268.33 681.877C1267.64 677.824 1266.08 674.772 1263.64 672.722C1261.25 670.671 1258.12 669.646 1254.26 669.646C1249.14 669.646 1245.04 671.428 1241.96 674.992C1238.93 678.508 1237.42 684.416 1237.42 692.717C1237.42 701.945 1238.96 708.464 1242.03 712.272C1245.16 716.081 1249.33 717.985 1254.56 717.985C1258.46 717.985 1261.66 716.887 1264.15 714.689C1266.64 712.443 1268.4 708.61 1269.42 703.19L1289.64 706.633C1287.54 715.91 1283.51 722.917 1277.55 727.653C1271.6 732.39 1263.61 734.758 1253.6 734.758C1242.23 734.758 1233.15 731.169 1226.36 723.991C1219.62 716.813 1216.25 706.877 1216.25 694.182C1216.25 681.34 1219.64 671.354 1226.43 664.226C1233.22 657.048 1242.4 653.459 1253.97 653.459C1263.44 653.459 1270.96 655.51 1276.53 659.611C1282.14 663.664 1286.17 669.865 1288.61 678.215ZM1339.96 655.217V671.623H1325.89V702.971C1325.89 709.318 1326.02 713.029 1326.26 714.104C1326.55 715.129 1327.16 715.983 1328.09 716.667C1329.07 717.351 1330.24 717.692 1331.61 717.692C1333.51 717.692 1336.27 717.033 1339.88 715.715L1341.64 731.682C1336.86 733.732 1331.44 734.758 1325.38 734.758C1321.67 734.758 1318.33 734.147 1315.35 732.927C1312.37 731.657 1310.17 730.046 1308.76 728.093C1307.39 726.091 1306.44 723.405 1305.9 720.036C1305.46 717.644 1305.24 712.81 1305.24 705.534V671.623H1295.79V655.217H1305.24V639.763L1325.89 627.751V655.217H1339.96ZM1354.24 733V712.419H1374.82V733H1354.24Z" fill="white"/>
<path d="M416.739 937H393.155L383.78 912.61H340.86L331.998 937H309L350.821 829.627H373.746L416.739 937ZM376.822 894.52L362.027 854.676L347.525 894.52H376.822ZM463.834 859.217V875.623H449.771V906.971C449.771 913.318 449.894 917.029 450.138 918.104C450.431 919.129 451.041 919.983 451.969 920.667C452.945 921.351 454.117 921.692 455.484 921.692C457.389 921.692 460.147 921.033 463.761 919.715L465.519 935.682C460.733 937.732 455.313 938.758 449.259 938.758C445.548 938.758 442.203 938.147 439.225 936.927C436.246 935.657 434.049 934.046 432.633 932.093C431.266 930.091 430.313 927.405 429.776 924.036C429.337 921.644 429.117 916.81 429.117 909.534V875.623H419.669V859.217H429.117V843.763L449.771 831.751V859.217H463.834ZM513.785 859.217V875.623H499.723V906.971C499.723 913.318 499.845 917.029 500.089 918.104C500.382 919.129 500.992 919.983 501.92 920.667C502.896 921.351 504.068 921.692 505.436 921.692C507.34 921.692 510.099 921.033 513.712 919.715L515.47 935.682C510.685 937.732 505.265 938.758 499.21 938.758C495.499 938.758 492.154 938.147 489.176 936.927C486.197 935.657 484 934.046 482.584 932.093C481.217 930.091 480.265 927.405 479.728 924.036C479.288 921.644 479.068 916.81 479.068 909.534V875.623H469.62V859.217H479.068V843.763L499.723 831.751V859.217H513.785ZM547.77 937H527.188V859.217H546.305V870.276C549.576 865.052 552.506 861.609 555.094 859.949C557.73 858.289 560.709 857.459 564.029 857.459C568.717 857.459 573.233 858.753 577.579 861.341L571.207 879.285C567.74 877.039 564.518 875.916 561.539 875.916C558.658 875.916 556.217 876.722 554.215 878.333C552.213 879.896 550.626 882.752 549.454 886.902C548.331 891.053 547.77 899.744 547.77 912.977V937ZM601.896 882.947L583.219 879.578C585.318 872.059 588.932 866.492 594.059 862.879C599.186 859.266 606.803 857.459 616.91 857.459C626.09 857.459 632.926 858.558 637.418 860.755C641.91 862.903 645.06 865.662 646.866 869.031C648.722 872.352 649.649 878.479 649.649 887.415L649.43 911.438C649.43 918.274 649.747 923.328 650.382 926.6C651.065 929.822 652.311 933.289 654.117 937H633.756C633.219 935.633 632.56 933.606 631.778 930.921C631.437 929.7 631.192 928.895 631.046 928.504C627.53 931.922 623.771 934.485 619.767 936.194C615.763 937.903 611.49 938.758 606.949 938.758C598.941 938.758 592.618 936.585 587.979 932.239C583.39 927.894 581.095 922.4 581.095 915.76C581.095 911.365 582.145 907.459 584.244 904.041C586.344 900.574 589.273 897.938 593.033 896.131C596.842 894.275 602.311 892.664 609.439 891.297C619.059 889.49 625.724 887.806 629.435 886.243V884.192C629.435 880.237 628.458 877.43 626.505 875.77C624.552 874.061 620.865 873.206 615.445 873.206C611.783 873.206 608.927 873.938 606.876 875.403C604.825 876.819 603.165 879.334 601.896 882.947ZM629.435 899.646C626.798 900.525 622.623 901.575 616.91 902.796C611.197 904.017 607.462 905.213 605.704 906.385C603.019 908.289 601.676 910.706 601.676 913.636C601.676 916.517 602.75 919.007 604.898 921.106C607.047 923.206 609.781 924.256 613.102 924.256C616.812 924.256 620.353 923.035 623.722 920.594C626.212 918.738 627.848 916.468 628.629 913.782C629.166 912.024 629.435 908.68 629.435 903.748V899.646ZM737.833 882.215L717.545 885.877C716.861 881.824 715.299 878.772 712.857 876.722C710.465 874.671 707.34 873.646 703.482 873.646C698.355 873.646 694.254 875.428 691.178 878.992C688.15 882.508 686.637 888.416 686.637 896.717C686.637 905.945 688.175 912.464 691.251 916.272C694.376 920.081 698.551 921.985 703.775 921.985C707.682 921.985 710.88 920.887 713.37 918.689C715.86 916.443 717.618 912.61 718.644 907.19L738.858 910.633C736.759 919.91 732.73 926.917 726.773 931.653C720.816 936.39 712.833 938.758 702.823 938.758C691.446 938.758 682.364 935.169 675.577 927.991C668.839 920.813 665.47 910.877 665.47 898.182C665.47 885.34 668.863 875.354 675.65 868.226C682.438 861.048 691.617 857.459 703.189 857.459C712.662 857.459 720.182 859.51 725.748 863.611C731.363 867.664 735.392 873.865 737.833 882.215ZM789.176 859.217V875.623H775.113V906.971C775.113 913.318 775.235 917.029 775.479 918.104C775.772 919.129 776.383 919.983 777.311 920.667C778.287 921.351 779.459 921.692 780.826 921.692C782.73 921.692 785.489 921.033 789.103 919.715L790.86 935.682C786.075 937.732 780.655 938.758 774.601 938.758C770.89 938.758 767.545 938.147 764.566 936.927C761.588 935.657 759.391 934.046 757.975 932.093C756.607 930.091 755.655 927.405 755.118 924.036C754.679 921.644 754.459 916.81 754.459 909.534V875.623H745.011V859.217H754.459V843.763L775.113 831.751V859.217H789.176ZM803.458 937V916.419H824.039V937H803.458ZM937.052 897.522V879.432H983.78V922.205C979.239 926.6 972.647 930.481 964.005 933.851C955.411 937.171 946.695 938.831 937.857 938.831C926.627 938.831 916.837 936.487 908.487 931.8C900.138 927.063 893.863 920.325 889.664 911.585C885.465 902.796 883.365 893.25 883.365 882.947C883.365 871.766 885.709 861.829 890.396 853.138C895.084 844.446 901.944 837.781 910.978 833.143C917.862 829.578 926.432 827.796 936.686 827.796C950.016 827.796 960.416 830.604 967.887 836.219C975.406 841.785 980.24 849.5 982.389 859.363L960.855 863.392C959.342 858.118 956.485 853.968 952.286 850.94C948.136 847.864 942.936 846.326 936.686 846.326C927.213 846.326 919.669 849.329 914.054 855.335C908.487 861.341 905.704 870.252 905.704 882.068C905.704 894.812 908.536 904.383 914.2 910.779C919.864 917.127 927.286 920.301 936.466 920.301C941.007 920.301 945.548 919.422 950.089 917.664C954.679 915.857 958.609 913.685 961.881 911.146V897.522H937.052ZM1023.4 937H1002.82V859.217H1021.94V870.276C1025.21 865.052 1028.14 861.609 1030.73 859.949C1033.37 858.289 1036.34 857.459 1039.66 857.459C1044.35 857.459 1048.87 858.753 1053.21 861.341L1046.84 879.285C1043.38 877.039 1040.15 875.916 1037.17 875.916C1034.29 875.916 1031.85 876.722 1029.85 878.333C1027.85 879.896 1026.26 882.752 1025.09 886.902C1023.97 891.053 1023.4 899.744 1023.4 912.977V937ZM1057.39 897.01C1057.39 890.174 1059.07 883.558 1062.44 877.161C1065.81 870.765 1070.57 865.882 1076.72 862.513C1082.93 859.144 1089.83 857.459 1097.45 857.459C1109.22 857.459 1118.86 861.292 1126.38 868.958C1133.9 876.575 1137.66 886.219 1137.66 897.889C1137.66 909.656 1133.85 919.422 1126.24 927.186C1118.67 934.9 1109.12 938.758 1097.6 938.758C1090.47 938.758 1083.66 937.146 1077.16 933.924C1070.72 930.701 1065.81 925.989 1062.44 919.788C1059.07 913.538 1057.39 905.945 1057.39 897.01ZM1078.48 898.108C1078.48 905.823 1080.31 911.731 1083.98 915.833C1087.64 919.935 1092.15 921.985 1097.53 921.985C1102.9 921.985 1107.39 919.935 1111 915.833C1114.66 911.731 1116.5 905.774 1116.5 897.962C1116.5 890.345 1114.66 884.485 1111 880.384C1107.39 876.282 1102.9 874.231 1097.53 874.231C1092.15 874.231 1087.64 876.282 1083.98 880.384C1080.31 884.485 1078.48 890.394 1078.48 898.108ZM1168.35 937L1143.74 859.217H1163.74L1178.31 910.193L1191.71 859.217H1211.56L1224.53 910.193L1239.4 859.217H1259.68L1234.71 937H1214.93L1201.53 886.976L1188.35 937H1168.35ZM1265.03 937V916.419H1285.61V937H1265.03Z" fill="white"/>
</g>
<defs>
<linearGradient id="paint0_linear_2942_5849" x1="-175.167" y1="-162.91" x2="-175.167" y2="1320.03" gradientUnits="userSpaceOnUse">
<stop offset="0.1195" stop-color="#210959"/>
<stop offset="0.2313" stop-color="#270A5B"/>
<stop offset="0.3767" stop-color="#370C60"/>
<stop offset="0.5408" stop-color="#520F68"/>
<stop offset="0.7187" stop-color="#771373"/>
<stop offset="0.9055" stop-color="#A71981"/>
<stop offset="1" stop-color="#C21C89"/>
</linearGradient>
<linearGradient id="paint1_linear_2942_5849" x1="460.872" y1="-293.363" x2="460.872" y2="1480.61" gradientUnits="userSpaceOnUse">
<stop offset="0.1195" stop-color="#210959"/>
<stop offset="0.2313" stop-color="#270A5B"/>
<stop offset="0.3767" stop-color="#370C60"/>
<stop offset="0.5408" stop-color="#520F68"/>
<stop offset="0.7187" stop-color="#771373"/>
<stop offset="0.9055" stop-color="#A71981"/>
<stop offset="1" stop-color="#C21C89"/>
</linearGradient>
<linearGradient id="paint2_linear_2942_5849" x1="1063.16" y1="-162.91" x2="1063.16" y2="1320.03" gradientUnits="userSpaceOnUse">
<stop offset="0.1195" stop-color="#210959"/>
<stop offset="0.2313" stop-color="#270A5B"/>
<stop offset="0.3767" stop-color="#370C60"/>
<stop offset="0.5408" stop-color="#520F68"/>
<stop offset="0.7187" stop-color="#771373"/>
<stop offset="0.9055" stop-color="#A71981"/>
<stop offset="1" stop-color="#C21C89"/>
</linearGradient>
<linearGradient id="paint3_linear_2942_5849" x1="1445.8" y1="-70.5746" x2="1445.8" y2="1428.96" gradientUnits="userSpaceOnUse">
<stop offset="0.1195" stop-color="#210959"/>
<stop offset="0.2313" stop-color="#270A5B"/>
<stop offset="0.3767" stop-color="#370C60"/>
<stop offset="0.5408" stop-color="#520F68"/>
<stop offset="0.7187" stop-color="#771373"/>
<stop offset="0.9055" stop-color="#A71981"/>
<stop offset="1" stop-color="#C21C89"/>
</linearGradient>
<linearGradient id="paint4_linear_2942_5849" x1="-209.939" y1="-162.91" x2="-209.939" y2="1320.03" gradientUnits="userSpaceOnUse">
<stop offset="0.1195" stop-color="#210959"/>
<stop offset="0.2313" stop-color="#270A5B"/>
<stop offset="0.3767" stop-color="#370C60"/>
<stop offset="0.5408" stop-color="#520F68"/>
<stop offset="0.7187" stop-color="#771373"/>
<stop offset="0.9055" stop-color="#A71981"/>
<stop offset="1" stop-color="#C21C89"/>
</linearGradient>
<linearGradient id="paint5_linear_2942_5849" x1="518.741" y1="-162.91" x2="518.741" y2="1320.03" gradientUnits="userSpaceOnUse">
<stop offset="0.1195" stop-color="#210959"/>
<stop offset="0.2313" stop-color="#270A5B"/>
<stop offset="0.3767" stop-color="#370C60"/>
<stop offset="0.5408" stop-color="#520F68"/>
<stop offset="0.7187" stop-color="#771373"/>
<stop offset="0.9055" stop-color="#A71981"/>
<stop offset="1" stop-color="#C21C89"/>
</linearGradient>
<linearGradient id="paint6_linear_2942_5849" x1="-175.107" y1="-294.248" x2="-175.107" y2="1188.51" gradientUnits="userSpaceOnUse">
<stop offset="0.1195" stop-color="#210959"/>
<stop offset="0.2313" stop-color="#270A5B"/>
<stop offset="0.3767" stop-color="#370C60"/>
<stop offset="0.5408" stop-color="#520F68"/>
<stop offset="0.7187" stop-color="#771373"/>
<stop offset="0.9055" stop-color="#A71981"/>
<stop offset="1" stop-color="#C21C89"/>
</linearGradient>
<linearGradient id="paint7_linear_2942_5849" x1="269.944" y1="-600.046" x2="269.944" y2="1564.92" gradientUnits="userSpaceOnUse">
<stop offset="0.1195" stop-color="#210959"/>
<stop offset="0.2313" stop-color="#270A5B"/>
<stop offset="0.3767" stop-color="#370C60"/>
<stop offset="0.5408" stop-color="#520F68"/>
<stop offset="0.7187" stop-color="#771373"/>
<stop offset="0.9055" stop-color="#A71981"/>
<stop offset="1" stop-color="#C21C89"/>
</linearGradient>
<linearGradient id="paint8_linear_2942_5849" x1="972.123" y1="-761.265" x2="972.123" y2="1178.87" gradientUnits="userSpaceOnUse">
<stop offset="0.1195" stop-color="#210959"/>
<stop offset="0.2313" stop-color="#270A5B"/>
<stop offset="0.3767" stop-color="#370C60"/>
<stop offset="0.5408" stop-color="#520F68"/>
<stop offset="0.7187" stop-color="#771373"/>
<stop offset="0.9055" stop-color="#A71981"/>
<stop offset="1" stop-color="#C21C89"/>
</linearGradient>
<linearGradient id="paint9_linear_2942_5849" x1="1354.31" y1="-640.462" x2="1354.31" y2="1321.38" gradientUnits="userSpaceOnUse">
<stop offset="0.1195" stop-color="#210959"/>
<stop offset="0.2313" stop-color="#270A5B"/>
<stop offset="0.3767" stop-color="#370C60"/>
<stop offset="0.5408" stop-color="#520F68"/>
<stop offset="0.7187" stop-color="#771373"/>
<stop offset="0.9055" stop-color="#A71981"/>
<stop offset="1" stop-color="#C21C89"/>
</linearGradient>
<linearGradient id="paint10_linear_2942_5849" x1="1685.76" y1="-1069.9" x2="1685.76" y2="92.751" gradientUnits="userSpaceOnUse">
<stop offset="0.1195" stop-color="#210959"/>
<stop offset="0.2313" stop-color="#270A5B"/>
<stop offset="0.3767" stop-color="#370C60"/>
<stop offset="0.5408" stop-color="#520F68"/>
<stop offset="0.7187" stop-color="#771373"/>
<stop offset="0.9055" stop-color="#A71981"/>
<stop offset="1" stop-color="#C21C89"/>
</linearGradient>
<linearGradient id="paint11_linear_2942_5849" x1="-209.883" y1="-294.248" x2="-209.883" y2="1188.51" gradientUnits="userSpaceOnUse">
<stop offset="0.1195" stop-color="#210959"/>
<stop offset="0.2313" stop-color="#270A5B"/>
<stop offset="0.3767" stop-color="#370C60"/>
<stop offset="0.5408" stop-color="#520F68"/>
<stop offset="0.7187" stop-color="#771373"/>
<stop offset="0.9055" stop-color="#A71981"/>
<stop offset="1" stop-color="#C21C89"/>
</linearGradient>
<linearGradient id="paint12_linear_2942_5849" x1="518.859" y1="-294.248" x2="518.859" y2="1188.51" gradientUnits="userSpaceOnUse">
<stop offset="0.1195" stop-color="#210959"/>
<stop offset="0.2313" stop-color="#270A5B"/>
<stop offset="0.3767" stop-color="#370C60"/>
<stop offset="0.5408" stop-color="#520F68"/>
<stop offset="0.7187" stop-color="#771373"/>
<stop offset="0.9055" stop-color="#A71981"/>
<stop offset="1" stop-color="#C21C89"/>
</linearGradient>
<linearGradient id="paint13_linear_2942_5849" x1="960.183" y1="-813.738" x2="960.183" y2="-46.1274" gradientUnits="userSpaceOnUse">
<stop stop-color="#210837"/>
<stop offset="1" stop-color="#210837" stop-opacity="0"/>
</linearGradient>
<clipPath id="clip0_2942_5849">
<rect width="1920" height="1208" fill="white"/>
</clipPath>
<clipPath id="clip1_2942_5849">
<rect width="1920.29" height="1230.77" fill="white" transform="translate(0 -11)"/>
</clipPath>
</defs>
</svg>
