<svg width="1920" height="1208" viewBox="0 0 1920 1208" fill="none" xmlns="http://www.w3.org/2000/svg">
<g opacity="0.45">
<path d="M1920 0H0.00976562V1208H1920V0Z" fill="#210837"/>
<mask id="mask0_3148_17571" style="mask-type:luminance" maskUnits="userSpaceOnUse" x="0" y="0" width="1920" height="1208">
<path d="M1920 0H0.00976562V1208H1920V0Z" fill="white"/>
</mask>
<g mask="url(#mask0_3148_17571)">
<path d="M36.1865 501.952L-647.227 1351.29H-390.488L296.895 501.952L-383.659 -347.653H-645.507L36.1865 501.952Z" fill="url(#paint0_linear_3148_17571)"/>
<path d="M713.7 501.982L-103.832 1518H203.292L1025.57 501.982L211.472 -514.364H-101.762L713.7 501.982Z" fill="url(#paint1_linear_3148_17571)"/>
<path d="M1274.51 501.952L591.1 1351.29H847.838L1535.22 501.952L854.678 -347.653H592.83L1274.51 501.952Z" fill="url(#paint2_linear_3148_17571)"/>
<path d="M1657.15 501.952L973.738 1351.29H1230.48L1917.86 501.952L1237.32 -347.653H975.468L1657.15 501.952Z" fill="url(#paint3_linear_3148_17571)"/>
</g>
<path d="M193.434 26.1934H0V1106.01H193.434V26.1934Z" fill="#210837"/>
<mask id="mask1_3148_17571" style="mask-type:luminance" maskUnits="userSpaceOnUse" x="0" y="26" width="194" height="1081">
<path d="M193.434 26.1934H0V1106.01H193.434V26.1934Z" fill="white"/>
</mask>
<g mask="url(#mask1_3148_17571)">
<path d="M1.4101 501.952L-682.003 1351.29H-425.264L262.118 501.952L-418.425 -347.653H-680.273L1.4101 501.952Z" fill="url(#paint4_linear_3148_17571)"/>
<path d="M730.09 501.952L46.6865 1351.29H303.425L990.798 501.952L310.255 -347.653H48.4064L730.09 501.952Z" fill="url(#paint5_linear_3148_17571)"/>
</g>
</g>
<defs>
<linearGradient id="paint0_linear_3148_17571" x1="-175.167" y1="-162.91" x2="-175.167" y2="1320.03" gradientUnits="userSpaceOnUse">
<stop offset="0.1195" stop-color="#210959"/>
<stop offset="0.2313" stop-color="#270A5B"/>
<stop offset="0.3767" stop-color="#370C60"/>
<stop offset="0.5408" stop-color="#520F68"/>
<stop offset="0.7187" stop-color="#771373"/>
<stop offset="0.9055" stop-color="#A71981"/>
<stop offset="1" stop-color="#C21C89"/>
</linearGradient>
<linearGradient id="paint1_linear_3148_17571" x1="460.871" y1="-293.363" x2="460.871" y2="1480.61" gradientUnits="userSpaceOnUse">
<stop offset="0.1195" stop-color="#210959"/>
<stop offset="0.2313" stop-color="#270A5B"/>
<stop offset="0.3767" stop-color="#370C60"/>
<stop offset="0.5408" stop-color="#520F68"/>
<stop offset="0.7187" stop-color="#771373"/>
<stop offset="0.9055" stop-color="#A71981"/>
<stop offset="1" stop-color="#C21C89"/>
</linearGradient>
<linearGradient id="paint2_linear_3148_17571" x1="1063.16" y1="-162.91" x2="1063.16" y2="1320.03" gradientUnits="userSpaceOnUse">
<stop offset="0.1195" stop-color="#210959"/>
<stop offset="0.2313" stop-color="#270A5B"/>
<stop offset="0.3767" stop-color="#370C60"/>
<stop offset="0.5408" stop-color="#520F68"/>
<stop offset="0.7187" stop-color="#771373"/>
<stop offset="0.9055" stop-color="#A71981"/>
<stop offset="1" stop-color="#C21C89"/>
</linearGradient>
<linearGradient id="paint3_linear_3148_17571" x1="1445.8" y1="-70.5746" x2="1445.8" y2="1428.96" gradientUnits="userSpaceOnUse">
<stop offset="0.1195" stop-color="#210959"/>
<stop offset="0.2313" stop-color="#270A5B"/>
<stop offset="0.3767" stop-color="#370C60"/>
<stop offset="0.5408" stop-color="#520F68"/>
<stop offset="0.7187" stop-color="#771373"/>
<stop offset="0.9055" stop-color="#A71981"/>
<stop offset="1" stop-color="#C21C89"/>
</linearGradient>
<linearGradient id="paint4_linear_3148_17571" x1="-209.939" y1="-162.91" x2="-209.939" y2="1320.03" gradientUnits="userSpaceOnUse">
<stop offset="0.1195" stop-color="#210959"/>
<stop offset="0.2313" stop-color="#270A5B"/>
<stop offset="0.3767" stop-color="#370C60"/>
<stop offset="0.5408" stop-color="#520F68"/>
<stop offset="0.7187" stop-color="#771373"/>
<stop offset="0.9055" stop-color="#A71981"/>
<stop offset="1" stop-color="#C21C89"/>
</linearGradient>
<linearGradient id="paint5_linear_3148_17571" x1="518.742" y1="-162.91" x2="518.742" y2="1320.03" gradientUnits="userSpaceOnUse">
<stop offset="0.1195" stop-color="#210959"/>
<stop offset="0.2313" stop-color="#270A5B"/>
<stop offset="0.3767" stop-color="#370C60"/>
<stop offset="0.5408" stop-color="#520F68"/>
<stop offset="0.7187" stop-color="#771373"/>
<stop offset="0.9055" stop-color="#A71981"/>
<stop offset="1" stop-color="#C21C89"/>
</linearGradient>
</defs>
</svg>
