<svg width="1920" height="1208" viewBox="0 0 1920 1208" fill="none" xmlns="http://www.w3.org/2000/svg">
<g clip-path="url(#clip0_1456_83873)">
<path d="M1920.29 -1091H0.0498047V10002.6H1920.29V-1091Z" fill="#210837"/>
<g opacity="0.45">
<path d="M1920.24 -1091H0.0888672V1219.77H1920.24V-1091Z" fill="#210837"/>
<mask id="mask0_1456_83873" style="mask-type:luminance" maskUnits="userSpaceOnUse" x="0" y="-1091" width="1921" height="2311">
<path d="M1920.24 -1091H0.0888672V1219.77H1920.24V-1091Z" fill="white"/>
</mask>
<g mask="url(#mask0_1456_83873)">
<path d="M36.2591 370.531L-647.211 1219.77H-390.451L296.989 370.531L-383.611 -478.969H-645.481L36.2591 370.531Z" fill="url(#paint0_linear_1456_83873)"/>
<path d="M578.559 370.594L-419.361 1610.54H-44.4713L959.249 370.594L-34.4913 -869.766H-416.841L578.559 370.594Z" fill="url(#paint1_linear_1456_83873)"/>
<path d="M1390.12 370.531L706.649 1219.77H963.409L1650.85 370.531L555.269 -1002.97H293.399L1390.12 370.531Z" fill="url(#paint2_linear_1456_83873)"/>
<path d="M1772.3 370.531L1088.83 1219.77H1345.59L2033.03 370.531L937.449 -1002.97H675.579L1772.3 370.531Z" fill="url(#paint3_linear_1456_83873)"/>
<path d="M2416.47 32.5278L1361.11 -1284.74H955.039L2012.18 32.5278" fill="url(#paint4_linear_1456_83873)"/>
</g>
<path d="M193.519 -105.172H0.0693359V740.528H193.519V-105.172Z" fill="#210837"/>
<mask id="mask1_1456_83873" style="mask-type:luminance" maskUnits="userSpaceOnUse" x="0" y="-106" width="194" height="847">
<path d="M193.519 -105.172H0.0693359V740.528H193.519V-105.172Z" fill="white"/>
</mask>
<g mask="url(#mask1_1456_83873)">
<path d="M1.4895 370.531L-681.98 1219.77H-425.22L262.219 370.531L-418.391 -478.969H-680.26L1.4895 370.531Z" fill="url(#paint5_linear_1456_83873)"/>
<path d="M730.23 370.531L46.7598 1219.77H303.52L990.96 370.531L310.35 -478.969H48.4798L730.23 370.531Z" fill="url(#paint6_linear_1456_83873)"/>
</g>
</g>
<path d="M1920.29 -1091H0.0693359V15.49H1920.29V-1091Z" fill="url(#paint7_linear_1456_83873)"/>
</g>
<defs>
<linearGradient id="paint0_linear_1456_83873" x1="-175.108" y1="-294.247" x2="-175.108" y2="1188.51" gradientUnits="userSpaceOnUse">
<stop offset="0.1195" stop-color="#210959"/>
<stop offset="0.2313" stop-color="#270A5B"/>
<stop offset="0.3767" stop-color="#370C60"/>
<stop offset="0.5408" stop-color="#520F68"/>
<stop offset="0.7187" stop-color="#771373"/>
<stop offset="0.9055" stop-color="#A71981"/>
<stop offset="1" stop-color="#C21C89"/>
</linearGradient>
<linearGradient id="paint1_linear_1456_83873" x1="269.943" y1="-600.052" x2="269.943" y2="1564.91" gradientUnits="userSpaceOnUse">
<stop offset="0.1195" stop-color="#210959"/>
<stop offset="0.2313" stop-color="#270A5B"/>
<stop offset="0.3767" stop-color="#370C60"/>
<stop offset="0.5408" stop-color="#520F68"/>
<stop offset="0.7187" stop-color="#771373"/>
<stop offset="0.9055" stop-color="#A71981"/>
<stop offset="1" stop-color="#C21C89"/>
</linearGradient>
<linearGradient id="paint2_linear_1456_83873" x1="972.123" y1="-761.264" x2="972.123" y2="1178.87" gradientUnits="userSpaceOnUse">
<stop offset="0.1195" stop-color="#210959"/>
<stop offset="0.2313" stop-color="#270A5B"/>
<stop offset="0.3767" stop-color="#370C60"/>
<stop offset="0.5408" stop-color="#520F68"/>
<stop offset="0.7187" stop-color="#771373"/>
<stop offset="0.9055" stop-color="#A71981"/>
<stop offset="1" stop-color="#C21C89"/>
</linearGradient>
<linearGradient id="paint3_linear_1456_83873" x1="1354.31" y1="-640.461" x2="1354.31" y2="1321.38" gradientUnits="userSpaceOnUse">
<stop offset="0.1195" stop-color="#210959"/>
<stop offset="0.2313" stop-color="#270A5B"/>
<stop offset="0.3767" stop-color="#370C60"/>
<stop offset="0.5408" stop-color="#520F68"/>
<stop offset="0.7187" stop-color="#771373"/>
<stop offset="0.9055" stop-color="#A71981"/>
<stop offset="1" stop-color="#C21C89"/>
</linearGradient>
<linearGradient id="paint4_linear_1456_83873" x1="1685.76" y1="-1069.91" x2="1685.76" y2="92.7488" gradientUnits="userSpaceOnUse">
<stop offset="0.1195" stop-color="#210959"/>
<stop offset="0.2313" stop-color="#270A5B"/>
<stop offset="0.3767" stop-color="#370C60"/>
<stop offset="0.5408" stop-color="#520F68"/>
<stop offset="0.7187" stop-color="#771373"/>
<stop offset="0.9055" stop-color="#A71981"/>
<stop offset="1" stop-color="#C21C89"/>
</linearGradient>
<linearGradient id="paint5_linear_1456_83873" x1="-209.883" y1="-294.247" x2="-209.883" y2="1188.51" gradientUnits="userSpaceOnUse">
<stop offset="0.1195" stop-color="#210959"/>
<stop offset="0.2313" stop-color="#270A5B"/>
<stop offset="0.3767" stop-color="#370C60"/>
<stop offset="0.5408" stop-color="#520F68"/>
<stop offset="0.7187" stop-color="#771373"/>
<stop offset="0.9055" stop-color="#A71981"/>
<stop offset="1" stop-color="#C21C89"/>
</linearGradient>
<linearGradient id="paint6_linear_1456_83873" x1="518.858" y1="-294.247" x2="518.858" y2="1188.51" gradientUnits="userSpaceOnUse">
<stop offset="0.1195" stop-color="#210959"/>
<stop offset="0.2313" stop-color="#270A5B"/>
<stop offset="0.3767" stop-color="#370C60"/>
<stop offset="0.5408" stop-color="#520F68"/>
<stop offset="0.7187" stop-color="#771373"/>
<stop offset="0.9055" stop-color="#A71981"/>
<stop offset="1" stop-color="#C21C89"/>
</linearGradient>
<linearGradient id="paint7_linear_1456_83873" x1="960.183" y1="-813.738" x2="960.183" y2="-46.1274" gradientUnits="userSpaceOnUse">
<stop stop-color="#210837"/>
<stop offset="1" stop-color="#210837" stop-opacity="0"/>
</linearGradient>
<clipPath id="clip0_1456_83873">
<rect width="1920.29" height="1230.77" fill="white" transform="translate(0 -11)"/>
</clipPath>
</defs>
</svg>
