<?xml version="1.0" encoding="utf-8"?>
<!-- Generator: Adobe Illustrator 27.3.1, SVG Export Plug-In . SVG Version: 6.00 Build 0)  -->
<svg version="1.1" xmlns="http://www.w3.org/2000/svg" xmlns:xlink="http://www.w3.org/1999/xlink" x="0px" y="0px"
	 viewBox="0 0 329.4 116.4" style="enable-background:new 0 0 329.4 116.4;" xml:space="preserve">
<style type="text/css">
	.st0{fill:#BE2686;}
	.st1{fill:#FFFFFF;}
</style>
<g id="logo">
</g>
<g id="creative">
</g>
<g id="seta">
	<g>
		<g>
			<path class="st1" d="M109.3,28.3H89v3.4h8.4V57h3.4V31.7h8.4V28.3z M17,42.7l11.5-14.3h-4.3L12.6,42.7L24.1,57h4.4L17,42.7z
				 M9.2,57h3.3V28.3H9.2V57z M57,42.7l11.5-14.3h-4.3L52.6,42.7L64.1,57h4.4L57,42.7z M49.2,57h3.3V28.3h-3.3V57z M78.3,57.3
				c6,0,10.1-3.5,10.1-8.6c0-3.9-2.5-6.4-7.6-7.4l-4-0.8c-3.5-0.6-5.2-2.1-5.2-4.5c0-3,2.5-5,6.4-5c4,0,6.5,1.9,7.2,5.4l0,0.2h3.2
				l0-0.3c-0.6-5.2-4.6-8.3-10.6-8.3c-5.8,0-9.6,3.3-9.6,8.2c0,3.9,2.6,6.5,7.5,7.5l4.6,0.9c3.1,0.6,4.8,2.1,4.8,4.5
				c0,3.2-2.6,5.2-6.7,5.2c-4.6,0-7.5-2.3-8.2-6.6l0-0.2H67l0,0.3c0.3,3,1.5,5.5,3.5,7.1C72.4,56.5,75.1,57.3,78.3,57.3 M47.5,31.7
				v-3.4l-17.4,0V57l17.4,0v-3.4h-14v-9.3h12.6v-3.4H33.5v-9.2H47.5z M52.5,59.5h-3.3v22.7L31,59.5v0h-3.3v28H31V64.8l18.2,22.7v0h0
				l0,0v0h3.3V59.5z M76.2,80.2c-2,2.7-5,4.3-8.2,4.3c-5.7,0-10.4-4.9-10.4-11c0-6,4.7-11,10.4-11c3.2,0,6.3,1.6,8.2,4.2h3.9
				c-2.4-4.7-7-7.5-12.1-7.5c-7.5,0-13.7,6.4-13.7,14.3c0,7.9,6.1,14.3,13.7,14.3c4.9,0,9.5-2.8,11.9-7.2c0-0.1,0.1-0.2,0.2-0.4
				H76.2z M13.7,84.5c3.2,0,6.3-1.6,8.2-4.3h3.9c-0.1,0.2-0.2,0.3-0.2,0.4c-2.4,4.4-7,7.2-11.9,7.2C6.1,87.8,0,81.4,0,73.5
				c0-7.9,6.1-14.3,13.7-14.3c5.1,0,9.7,2.9,12.1,7.5h-3.9c-1.9-2.7-4.9-4.2-8.2-4.2c-5.7,0-10.4,4.9-10.4,11
				C3.3,79.5,8,84.5,13.7,84.5"/>
		</g>
		<g>
			<path class="st1" d="M208.2,48.6c1.4,0,2.6-0.4,3.6-1.3c1-0.8,1.6-1.9,1.7-3.2h3.7c-0.1,1.3-0.5,2.5-1.3,3.7s-1.9,2.1-3.3,2.8
				c-1.4,0.7-2.8,1.1-4.4,1.1c-3.1,0-5.6-1-7.4-3.1s-2.7-4.9-2.7-8.5v-0.7c0-2.2,0.4-4.2,1.2-5.9c0.8-1.7,2-3.1,3.5-4
				s3.3-1.4,5.4-1.4c2.6,0,4.7,0.8,6.4,2.3c1.7,1.5,2.6,3.5,2.7,6h-3.7c-0.1-1.5-0.7-2.7-1.7-3.6c-1-0.9-2.2-1.4-3.7-1.4
				c-2,0-3.5,0.7-4.6,2.1c-1.1,1.4-1.6,3.5-1.6,6.2v0.7c0,2.6,0.5,4.6,1.6,6.1C204.7,47.9,206.2,48.6,208.2,48.6z"/>
			<path class="st1" d="M230.7,32.1c-0.6-0.1-1.2-0.1-1.9-0.1c-2.6,0-4.3,1.1-5.2,3.3v16.2h-3.9V28.6h3.8l0.1,2.6
				c1.3-2,3.1-3.1,5.4-3.1c0.8,0,1.3,0.1,1.7,0.3V32.1z"/>
			<path class="st1" d="M241.2,51.8c-3.1,0-5.6-1-7.5-3c-1.9-2-2.9-4.7-2.9-8.1v-0.7c0-2.3,0.4-4.3,1.3-6.1c0.9-1.8,2.1-3.2,3.6-4.2
				c1.6-1,3.2-1.5,5-1.5c3,0,5.3,1,6.9,2.9c1.6,2,2.5,4.7,2.5,8.4v1.6h-15.4c0.1,2.2,0.7,4.1,2,5.4c1.3,1.4,2.9,2.1,4.8,2.1
				c1.4,0,2.5-0.3,3.5-0.8c1-0.6,1.8-1.3,2.5-2.2l2.4,1.9C247.9,50.3,245.1,51.8,241.2,51.8z M240.8,31.4c-1.6,0-2.9,0.6-4,1.7
				c-1.1,1.1-1.7,2.7-2,4.8h11.4v-0.3c-0.1-2-0.6-3.5-1.6-4.6C243.7,31.9,242.4,31.4,240.8,31.4z"/>
			<path class="st1" d="M266.3,51.3c-0.2-0.4-0.4-1.2-0.5-2.4c-1.8,1.9-4,2.8-6.5,2.8c-2.2,0-4.1-0.6-5.5-1.9
				c-1.4-1.3-2.2-2.9-2.2-4.8c0-2.4,0.9-4.2,2.7-5.5c1.8-1.3,4.3-2,7.6-2h3.8v-1.8c0-1.4-0.4-2.4-1.2-3.3c-0.8-0.8-2-1.2-3.6-1.2
				c-1.4,0-2.6,0.4-3.5,1.1c-0.9,0.7-1.4,1.6-1.4,2.5h-3.9c0-1.1,0.4-2.2,1.2-3.3c0.8-1.1,1.9-1.9,3.3-2.5c1.4-0.6,2.9-0.9,4.6-0.9
				c2.6,0,4.7,0.7,6.2,2c1.5,1.3,2.3,3.1,2.3,5.4V46c0,2.1,0.3,3.8,0.8,5v0.3H266.3z M259.9,48.4c1.2,0,2.4-0.3,3.5-0.9
				s1.9-1.5,2.4-2.5v-4.7h-3.1c-4.8,0-7.2,1.4-7.2,4.2c0,1.2,0.4,2.2,1.2,2.9C257.5,48,258.6,48.4,259.9,48.4z"/>
			<path class="st1" d="M278.8,23.1v5.5h4.3v3h-4.3v14.1c0,0.9,0.2,1.6,0.6,2.1c0.4,0.5,1,0.7,1.9,0.7c0.4,0,1.1-0.1,1.9-0.3v3.1
				c-1,0.3-2,0.4-3,0.4c-1.7,0-3.1-0.5-3.9-1.6c-0.9-1.1-1.3-2.5-1.3-4.5V31.6h-4.1v-3h4.1v-5.5H278.8z"/>
			<path class="st1" d="M285,22.5c0-0.6,0.2-1.2,0.6-1.6c0.4-0.4,1-0.7,1.7-0.7c0.8,0,1.3,0.2,1.7,0.7c0.4,0.4,0.6,1,0.6,1.6
				c0,0.6-0.2,1.2-0.6,1.6s-1,0.6-1.7,0.6c-0.8,0-1.3-0.2-1.7-0.6C285.2,23.7,285,23.2,285,22.5z M289.2,51.3h-3.9V28.6h3.9V51.3z"
				/>
			<path class="st1" d="M300.7,46.1l5.6-17.5h4l-8.2,22.8h-3L291,28.6h4L300.7,46.1z"/>
			<path class="st1" d="M320.5,51.8c-3.1,0-5.6-1-7.5-3c-1.9-2-2.9-4.7-2.9-8.1v-0.7c0-2.3,0.4-4.3,1.3-6.1c0.9-1.8,2.1-3.2,3.6-4.2
				c1.6-1,3.2-1.5,5-1.5c3,0,5.3,1,6.9,2.9c1.6,2,2.5,4.7,2.5,8.4v1.6H314c0.1,2.2,0.7,4.1,2,5.4c1.3,1.4,2.9,2.1,4.8,2.1
				c1.4,0,2.5-0.3,3.5-0.8c1-0.6,1.8-1.3,2.5-2.2l2.4,1.9C327.2,50.3,324.4,51.8,320.5,51.8z M320.1,31.4c-1.6,0-2.9,0.6-4,1.7
				c-1.1,1.1-1.7,2.7-2,4.8h11.4v-0.3c-0.1-2-0.6-3.5-1.6-4.6C323,31.9,321.7,31.4,320.1,31.4z"/>
		</g>
		<g>
			<path class="st1" d="M212.3,81.2c0-1.1-0.4-1.9-1.2-2.5s-2.2-1.1-4.1-1.5c-2-0.4-3.5-0.9-4.7-1.5c-1.2-0.6-2-1.3-2.6-2.1
				c-0.6-0.8-0.8-1.8-0.8-2.9c0-1.9,0.8-3.4,2.4-4.7c1.6-1.3,3.6-1.9,6.1-1.9c2.6,0,4.7,0.7,6.3,2c1.6,1.3,2.4,3,2.4,5.1h-3.9
				c0-1.1-0.5-2-1.4-2.8c-0.9-0.8-2-1.2-3.4-1.2c-1.4,0-2.5,0.3-3.3,0.9s-1.2,1.4-1.2,2.4c0,0.9,0.4,1.6,1.1,2.1
				c0.7,0.5,2.1,0.9,4,1.4c1.9,0.4,3.5,1,4.7,1.6c1.2,0.6,2.1,1.3,2.7,2.2c0.6,0.8,0.9,1.9,0.9,3.1c0,2-0.8,3.7-2.4,4.9
				c-1.6,1.2-3.7,1.8-6.3,1.8c-1.8,0-3.4-0.3-4.8-1c-1.4-0.6-2.5-1.5-3.3-2.7c-0.8-1.2-1.2-2.4-1.2-3.8h3.9c0.1,1.3,0.6,2.3,1.6,3.1
				s2.3,1.1,3.9,1.1c1.5,0,2.7-0.3,3.5-0.9C211.9,83,212.3,82.2,212.3,81.2z"/>
			<path class="st1" d="M224.8,59v5.5h4.3v3h-4.3v14.1c0,0.9,0.2,1.6,0.6,2.1c0.4,0.5,1,0.7,1.9,0.7c0.4,0,1.1-0.1,1.9-0.3v3.1
				c-1,0.3-2,0.4-3,0.4c-1.7,0-3.1-0.5-3.9-1.6c-0.9-1.1-1.3-2.5-1.3-4.5V67.5h-4.1v-3h4.1V59H224.8z"/>
			<path class="st1" d="M245.2,85c-1.5,1.8-3.7,2.7-6.7,2.7c-2.4,0-4.3-0.7-5.5-2.1c-1.3-1.4-1.9-3.5-1.9-6.3V64.5h3.9v14.7
				c0,3.5,1.4,5.2,4.2,5.2c3,0,5-1.1,5.9-3.3V64.5h3.9v22.8h-3.7L245.2,85z"/>
			<path class="st1" d="M251.8,75.7c0-3.5,0.8-6.3,2.5-8.4c1.7-2.1,3.8-3.2,6.5-3.2c2.7,0,4.8,0.9,6.3,2.7V54.9h3.9v32.3h-3.6
				l-0.2-2.4c-1.6,1.9-3.7,2.9-6.5,2.9c-2.6,0-4.8-1.1-6.5-3.2s-2.5-5-2.5-8.5V75.7z M255.7,76.1c0,2.6,0.5,4.6,1.6,6.1
				c1.1,1.5,2.5,2.2,4.4,2.2c2.5,0,4.3-1.1,5.4-3.3V70.6c-1.2-2.1-3-3.2-5.4-3.2c-1.9,0-3.4,0.7-4.5,2.2
				C256.3,71,255.7,73.2,255.7,76.1z"/>
			<path class="st1" d="M274.8,58.4c0-0.6,0.2-1.2,0.6-1.6c0.4-0.4,1-0.7,1.7-0.7c0.8,0,1.3,0.2,1.7,0.7c0.4,0.4,0.6,1,0.6,1.6
				c0,0.6-0.2,1.2-0.6,1.6s-1,0.6-1.7,0.6c-0.8,0-1.3-0.2-1.7-0.6C275,59.6,274.8,59.1,274.8,58.4z M279,87.3h-3.9V64.5h3.9V87.3z"
				/>
			<path class="st1" d="M281.8,75.7c0-2.2,0.4-4.2,1.3-6c0.9-1.8,2.1-3.2,3.7-4.1c1.6-1,3.3-1.5,5.4-1.5c3.1,0,5.6,1.1,7.5,3.2
				c1.9,2.1,2.9,5,2.9,8.6v0.3c0,2.2-0.4,4.2-1.3,6c-0.8,1.8-2.1,3.1-3.6,4.1c-1.6,1-3.4,1.5-5.4,1.5c-3.1,0-5.6-1.1-7.5-3.2
				c-1.9-2.1-2.9-5-2.9-8.5V75.7z M285.7,76.1c0,2.5,0.6,4.6,1.8,6.1s2.7,2.3,4.7,2.3c2,0,3.5-0.8,4.7-2.3c1.2-1.6,1.7-3.7,1.7-6.5
				c0-2.5-0.6-4.5-1.8-6.1c-1.2-1.5-2.8-2.3-4.7-2.3c-1.9,0-3.5,0.8-4.7,2.3S285.7,73.3,285.7,76.1z"/>
		</g>
		<polygon class="st0" points="106,0 148.5,58.2 105.9,116.4 143.7,116.4 186.5,58.2 144.1,0 		"/>
	</g>
</g>
</svg>
